<svg width="73" height="100" viewBox="0 0 73 100" fill="none" xmlns="http://www.w3.org/2000/svg">
<path fill-rule="evenodd" clip-rule="evenodd" d="M54.2878 49.2769C54.187 49.8565 53.9414 50.4082 53.5695 50.8905C53.1976 51.3729 52.7089 51.7734 52.1401 52.0621C50.9947 52.7263 49.9925 53.0584 48.9783 53.3905C46.8187 54.06 44.5458 54.7295 42.1416 55.5062C39.6062 56.2828 37.3333 57.0595 35.3049 57.6218C32.7755 58.3985 30.3713 59.068 28.0865 59.8447C26.3674 60.5051 24.7528 61.3659 23.2841 62.4049C21.9182 63.516 20.7261 64.788 19.7405 66.1864C18.7263 67.7397 18.088 69.7429 18.088 72.0782C18.088 76.7541 19.3527 80.3107 21.8881 82.5335C24.4176 84.8741 29.1066 85.9828 36.0566 85.9828C43.1439 85.9828 47.9522 84.7616 50.4936 82.3139C53.0171 79.8661 54.2818 76.4221 54.2818 71.9764V49.2769H54.2878ZM36.0626 0C48.4712 0 57.5808 2.11569 63.3974 6.4542C69.2199 10.6856 72.1311 16.1275 72.1311 22.5763V77.5308C72.1311 79.7536 71.63 82.2014 70.7471 84.8688C69.8522 87.5469 68.0864 89.9893 65.3004 92.2067C62.6457 94.4403 58.9768 96.331 54.2937 97.7772C49.6107 99.2234 43.5376 100 36.0686 100C28.6114 100 22.5264 99.2234 17.8493 97.7772C13.1722 96.331 9.49738 94.4403 6.84265 92.2067C4.37303 90.2086 2.50219 87.6853 1.40194 84.8688C0.507083 82.2067 0 79.759 0 77.5361V68.752C0 64.0761 1.39001 59.7375 4.17598 55.9507C6.96196 52.0621 10.8814 49.3947 15.9463 47.7236C18.4757 46.947 21.387 46.1703 24.6741 45.1687C27.9672 44.1618 30.9977 43.1601 34.0402 42.2764C37.0827 41.3819 39.7375 40.4874 42.0104 39.7054C43.382 39.2127 44.7751 38.7695 46.1864 38.3771L48.4653 37.3755C49.3601 36.9309 50.2371 36.2614 51.126 35.3723C52.0089 34.4885 52.7665 33.4869 53.4048 32.3728C54.0793 31.1664 54.4268 29.834 54.419 28.4842V24.9223C54.4284 23.6169 54.1231 22.3251 53.5242 21.1355C53.023 19.7965 52.0089 18.5753 50.6189 17.4665C49.2289 16.3524 47.3258 15.4633 45.0529 14.7884C42.774 14.1296 39.7434 13.7922 36.3191 13.7922C29.2319 13.7922 24.5488 15.0241 22.0194 17.5737C19.8717 19.8018 18.607 22.5817 18.3564 25.6936C18.3564 26.3631 17.7241 26.8077 16.9605 26.8077L1.52722 27.0327C1.16061 27.0341 0.808218 26.9055 0.546763 26.6747C0.285307 26.444 0.135962 26.1299 0.131245 25.8007V22.587C0.131245 19.4644 0.769574 16.572 2.15958 13.7922C3.55555 11.007 5.70916 8.67702 8.61446 6.66845C11.5257 4.67059 15.3259 3.00482 19.8777 1.89073C24.3102 0.551687 29.7509 0 36.0745 0H36.0626Z" fill="#0A3871"/>
</svg>
